# Blender v3.2.0 OBJ File: ''
# www.blender.org
mtllib flat.mtl
o Plane
v -28.284264 0.000000 28.284267
v -15.307335 0.000000 36.955177
v -22.222807 0.000000 33.258778
v -0.000003 0.000000 39.999996
v 15.307337 0.000000 36.955177
v 7.803611 0.000000 39.231407
v -7.803609 0.000000 39.231407
v 28.284266 0.000000 28.284266
v 33.258781 0.000000 22.222803
v 39.999996 0.000000 0.000002
v 39.231407 0.000000 7.803612
v 39.231407 0.000000 -7.803613
v 36.955177 0.000000 15.307333
v 36.955177 0.000000 -15.307335
v 22.222803 0.000000 33.258781
v -39.999996 0.000000 -0.000000
v -39.231407 0.000000 -7.803616
v -39.231407 0.000000 7.803614
v -28.284271 0.000000 -28.284264
v -33.258774 0.000000 22.222813
v -33.258785 0.000000 -22.222797
v -36.955177 0.000000 15.307341
v -36.955173 0.000000 -15.307342
v -15.307335 0.000000 -36.955177
v 0.000000 0.000000 -39.999996
v -7.803608 0.000000 -39.231407
v 22.222805 0.000000 -33.258778
v 15.307336 0.000000 -36.955177
v 33.258778 0.000000 -22.222805
v 28.284266 0.000000 -28.284266
v 7.803612 0.000000 -39.231407
v -22.222807 0.000000 -33.258778
v -49.888161 0.000000 33.334221
v -49.888161 0.000000 33.334221
v 49.888172 0.000000 -33.334209
v 55.432770 0.000000 -22.961004
v -42.426399 0.000000 42.426407
v -33.334213 0.000000 49.888168
v 11.705418 0.000000 58.847115
v 33.334206 0.000000 49.888176
v 22.961006 0.000000 55.432770
v 59.999996 0.000000 0.000003
v 58.847115 0.000000 -11.705420
v 58.847115 0.000000 11.705419
v -22.961004 0.000000 55.432770
v 55.432770 0.000000 22.961002
v -11.705414 0.000000 58.847115
v -0.000005 0.000000 59.999996
v 49.888176 0.000000 33.334206
v 42.426407 0.000000 42.426407
v -55.432770 0.000000 22.961014
v 49.888172 0.000000 -33.334213
v 0.000000 0.000000 -59.999996
v 22.961006 0.000000 -55.432770
v 11.705419 0.000000 -58.847115
v -59.999996 0.000000 -0.000001
v -58.847115 0.000000 11.705422
v -58.847115 0.000000 -11.705423
v -55.432762 0.000000 -22.961014
v -49.888176 0.000000 -33.334202
v -42.426411 0.000000 -42.426399
v -22.961004 0.000000 -55.432770
v -11.705413 0.000000 -58.847115
v 33.334213 0.000000 -49.888172
v 42.426407 0.000000 -42.426407
v -33.334213 0.000000 -49.888172
vt 0.676777 0.323223
vt 0.638893 0.292133
vt 0.765165 0.234835
vt 0.361107 0.707867
vt 0.404329 0.730970
vt 0.291661 0.811801
vt 0.867794 0.573159
vt 0.846455 0.643506
vt 0.745196 0.548773
vt 0.811801 0.708339
vt 0.730970 0.595671
vt 0.707867 0.638893
vt 0.875000 0.500000
vt 0.750000 0.500000
vt 0.846455 0.356494
vt 0.867794 0.426841
vt 0.745196 0.451227
vt 0.811801 0.291661
vt 0.707868 0.361107
vt 0.643506 0.153545
vt 0.708339 0.188199
vt 0.595671 0.269030
vt 0.500000 0.125000
vt 0.573159 0.132206
vt 0.548773 0.254804
vt 0.356494 0.153545
vt 0.426841 0.132205
vt 0.451228 0.254804
vt 0.500000 0.250000
vt 0.234835 0.234835
vt 0.291661 0.188199
vt 0.361107 0.292133
vt 0.188199 0.291661
vt 0.188199 0.291661
vt 0.323223 0.323223
vt 0.292133 0.361107
vt 0.404329 0.269030
vt 0.730970 0.404329
vt 0.234835 0.765165
vt 0.323223 0.676777
vt 0.188199 0.708339
vt 0.292133 0.638892
vt 0.153545 0.643506
vt 0.269030 0.595671
vt 0.132205 0.573159
vt 0.254804 0.548773
vt 0.125000 0.500000
vt 0.132205 0.426841
vt 0.250000 0.500000
vt 0.153545 0.356494
vt 0.254804 0.451227
vt 0.269030 0.404329
vt 0.426841 0.867795
vt 0.356494 0.846455
vt 0.451227 0.745196
vt 0.573159 0.867795
vt 0.500000 0.875000
vt 0.548773 0.745196
vt 0.500000 0.750000
vt 0.708339 0.811801
vt 0.643506 0.846455
vt 0.595671 0.730970
vt 0.811801 0.708339
vt 0.765165 0.765165
vt 0.676777 0.676777
vt 0.638893 0.707868
vn 0.0000 1.0000 0.0000
vn 0.0000 0.0000 1.0000
usemtl None
s off
f 8/1/1 15/2/1 50/3/1
f 32/4/1 24/5/1 66/6/1
f 43/7/1 36/8/1 12/9/1
f 36/8/1 35/10/1 14/11/1
f 12/9/1 36/8/1 14/11/1
f 35/10/1 29/12/1 14/11/1
f 42/13/1 43/7/1 10/14/1
f 10/14/1 43/7/1 12/9/1
f 46/15/1 44/16/1 11/17/1
f 44/16/1 42/13/1 11/17/1
f 50/3/1 49/18/1 8/1/1
f 49/18/1 46/15/1 9/19/1
f 8/1/1 49/18/1 9/19/1
f 41/20/1 40/21/1 5/22/1
f 40/21/1 50/3/1 15/2/1
f 5/22/1 40/21/1 15/2/1
f 48/23/1 39/24/1 6/25/1
f 39/24/1 41/20/1 5/22/1
f 45/26/1 47/27/1 7/28/1
f 47/27/1 48/23/1 4/29/1
f 37/30/1 38/31/1 3/32/1
f 38/31/1 45/26/1 3/32/1
f 34/33/2 33/34/2 37/30/2
f 1/35/1 20/36/1 34/33/1
f 3/32/1 1/35/1 37/30/1
f 1/35/1 34/33/1 37/30/1
f 47/27/1 4/29/1 7/28/1
f 39/24/1 5/22/1 6/25/1
f 11/17/1 42/13/1 10/14/1
f 2/37/1 3/32/1 45/26/1
f 46/15/1 11/17/1 13/38/1
f 7/28/1 2/37/1 45/26/1
f 46/15/1 13/38/1 9/19/1
f 6/25/1 4/29/1 48/23/1
f 66/6/1 61/39/1 19/40/1
f 61/39/1 60/41/1 21/42/1
f 60/41/1 59/43/1 23/44/1
f 59/43/1 58/45/1 17/46/1
f 58/45/1 56/47/1 17/46/1
f 56/47/1 57/48/1 16/49/1
f 17/46/1 56/47/1 16/49/1
f 57/48/1 51/50/1 18/51/1
f 51/50/1 34/33/1 22/52/1
f 18/51/1 51/50/1 22/52/1
f 34/33/1 20/36/1 22/52/1
f 61/39/1 21/42/1 19/40/1
f 59/43/1 17/46/1 23/44/1
f 63/53/1 62/54/1 26/55/1
f 62/54/1 66/6/1 24/5/1
f 26/55/1 62/54/1 24/5/1
f 55/56/1 53/57/1 31/58/1
f 53/57/1 63/53/1 25/59/1
f 31/58/1 53/57/1 25/59/1
f 64/60/1 54/61/1 28/62/1
f 54/61/1 55/56/1 31/58/1
f 52/63/1 65/64/1 30/65/1
f 65/64/1 64/60/1 27/66/1
f 29/12/1 35/10/1 30/65/1
f 35/10/1 52/63/1 30/65/1
f 65/64/1 27/66/1 30/65/1
f 54/61/1 31/58/1 28/62/1
f 18/51/1 16/49/1 57/48/1
f 28/62/1 27/66/1 64/60/1
f 60/41/1 23/44/1 21/42/1
f 25/59/1 63/53/1 26/55/1
f 66/6/1 19/40/1 32/4/1
