# Blender v3.2.0 OBJ File: ''
# www.blender.org
mtllib grass.mtl
o Plane
v -999.999756 0.000000 999.999756
v 0.000000 0.000000 -40.000000
v 999.999756 0.000000 999.999756
v -999.999756 0.000000 -999.999756
v 7.803613 0.000000 -39.231407
v 999.999756 0.000000 -999.999756
v -42.426388 0.000000 42.426395
v 15.307338 0.000000 -36.955177
v -22.960999 0.000000 55.432755
v 22.222809 0.000000 -33.258785
v -11.705412 0.000000 58.847103
v -33.334202 0.000000 49.888157
v 28.284271 0.000000 -28.284271
v -0.000005 0.000000 59.999985
v 33.334194 0.000000 49.888165
v 22.961002 0.000000 55.432755
v 33.258785 0.000000 -22.222809
v 11.705415 0.000000 58.847103
v 49.888165 0.000000 33.334194
v 36.955177 0.000000 -15.307337
v 49.888161 0.000000 -33.334198
v 59.999985 0.000000 0.000003
v 39.231407 0.000000 -7.803614
v 55.432758 0.000000 22.960997
v 58.847099 0.000000 11.705416
v 40.000000 0.000000 0.000002
v 58.847099 0.000000 -11.705418
v 42.426392 0.000000 42.426392
v 39.231407 0.000000 7.803613
v 55.432755 0.000000 -22.960999
v 42.426392 0.000000 -42.426392
v 36.955181 0.000000 15.307335
v -59.999985 0.000000 -0.000001
v 33.258785 0.000000 22.222807
v -58.847099 0.000000 -11.705420
v -58.847099 0.000000 11.705419
v 28.284271 0.000000 28.284271
v -49.888153 0.000000 33.334209
v -49.888168 0.000000 -33.334187
v 22.222807 0.000000 33.258785
v -55.432755 0.000000 22.961008
v -55.432751 0.000000 -22.961010
v 15.307339 0.000000 36.955177
v -42.426399 0.000000 -42.426388
v -33.334202 0.000000 -49.888161
v 7.803612 0.000000 39.231411
v -11.705411 0.000000 -58.847103
v -22.960999 0.000000 -55.432758
v -0.000003 0.000000 40.000000
v 11.705416 0.000000 -58.847099
v 33.334198 0.000000 -49.888161
v -7.803609 0.000000 39.231411
v 22.961000 0.000000 -55.432755
v 0.000000 0.000000 -59.999985
v -15.307337 0.000000 36.955177
v -22.222811 0.000000 33.258781
v -28.284269 0.000000 28.284271
v -33.258778 0.000000 22.222816
v -36.955177 0.000000 15.307343
v -39.231407 0.000000 7.803615
v -40.000000 0.000000 -0.000000
v -39.231407 0.000000 -7.803617
v -36.955177 0.000000 -15.307343
v -33.258789 0.000000 -22.222801
v -28.284273 0.000000 -28.284269
v -22.222811 0.000000 -33.258785
v -15.307337 0.000000 -36.955181
v -7.803609 0.000000 -39.231411
vt 1.000000 1.000000
vt 0.529424 0.505853
vt 0.530000 0.500000
vt 0.470000 0.500000
vt 0.470576 0.505853
vt 0.000000 1.000000
vt 0.296822 0.485388
vt 0.116663 0.449553
vt 0.383337 0.050447
vt 0.990000 0.250000
vt 0.919706 0.080294
vt 0.841844 0.028269
vt 0.483333 0.475056
vt 0.478787 0.478787
vt 0.000000 0.000000
vt 0.500000 0.530000
vt 0.478787 0.521213
vt 0.483333 0.524944
vt 0.488519 0.527716
vt 0.488519 0.472284
vt 1.000000 0.000000
vt 0.500000 0.470000
vt 0.494147 0.470576
vt 0.494147 0.529424
vt 0.505853 0.529424
vt 0.505853 0.470576
vt 0.511481 0.472284
vt 0.511481 0.527716
vt 0.516667 0.524944
vt 0.516667 0.475056
vt 0.521213 0.478787
vt 0.521213 0.521213
vt 0.524944 0.516667
vt 0.524944 0.483333
vt 0.527716 0.488519
vt 0.529424 0.494147
vt 0.527716 0.511480
vt 0.475056 0.516667
vt 0.475056 0.483333
vt 0.472284 0.488519
vt 0.472284 0.511481
vt 0.470576 0.494147
vt 0.080294 0.419706
vt 0.050447 0.383337
vt 0.028269 0.341844
vt 0.014612 0.296822
vt 0.010000 0.250000
vt 0.014612 0.203178
vt 0.028269 0.158156
vt 0.050447 0.116663
vt 0.080294 0.080294
vt 0.116663 0.050447
vt 0.158156 0.028269
vt 0.203178 0.014612
vt 0.250000 0.010000
vt 0.296822 0.014612
vt 0.341844 0.028269
vt 0.419706 0.080294
vt 0.485388 0.203178
vt 0.449553 0.116663
vt 0.471731 0.158156
vt 0.490000 0.250000
vt 0.485388 0.296822
vt 0.471731 0.341844
vt 0.449553 0.383337
vt 0.419706 0.419706
vt 0.383337 0.449553
vt 0.341844 0.471731
vt 0.250000 0.490000
vt 0.203178 0.485388
vt 0.158156 0.471731
vt 0.703178 0.485388
vt 0.750000 0.490000
vt 0.796822 0.485388
vt 0.841844 0.471731
vt 0.883337 0.449553
vt 0.919706 0.419706
vt 0.949553 0.383337
vt 0.971731 0.341844
vt 0.985388 0.296822
vt 0.990000 0.250000
vt 0.985388 0.203178
vt 0.971731 0.158156
vt 0.949553 0.116663
vt 0.919706 0.080294
vt 0.883337 0.050447
vt 0.796822 0.014612
vt 0.750000 0.010000
vt 0.703178 0.014612
vt 0.750000 0.490000
vt 0.796822 0.485388
vt 0.841844 0.471731
vt 0.883337 0.449553
vt 0.919706 0.419706
vt 0.949553 0.383337
vt 0.971731 0.341844
vt 0.985388 0.296822
vt 0.985388 0.203178
vt 0.971731 0.158156
vt 0.949553 0.116663
vn 0.0000 1.0000 0.0000
vn 0.0000 -1.0000 0.0000
usemtl None
s off
f 6/1/1 27/2/1 22/3/1
f 33/4/1 35/5/1 4/6/1
f 5/7/1 66/8/1 40/9/1
f 63/10/2 67/11/2 43/12/2
f 12/13/1 7/14/1 1/15/1
f 6/1/1 4/6/1 54/16/1
f 4/6/1 44/17/1 45/18/1
f 4/6/1 45/18/1 48/19/1
f 12/13/1 1/15/1 9/20/1
f 1/15/1 3/21/1 14/22/1
f 9/20/1 1/15/1 11/23/1
f 11/23/1 1/15/1 14/22/1
f 4/6/1 48/19/1 47/24/1
f 4/6/1 47/24/1 54/16/1
f 6/1/1 54/16/1 50/25/1
f 18/26/1 14/22/1 3/21/1
f 16/27/1 18/26/1 3/21/1
f 6/1/1 50/25/1 53/28/1
f 6/1/1 53/28/1 51/29/1
f 15/30/1 16/27/1 3/21/1
f 28/31/1 15/30/1 3/21/1
f 6/1/1 51/29/1 31/32/1
f 6/1/1 31/32/1 21/33/1
f 28/31/1 3/21/1 19/34/1
f 3/21/1 6/1/1 22/3/1
f 19/34/1 3/21/1 24/35/1
f 24/35/1 3/21/1 25/36/1
f 6/1/1 21/33/1 30/37/1
f 6/1/1 30/37/1 27/2/1
f 25/36/1 3/21/1 22/3/1
f 39/38/1 44/17/1 4/6/1
f 4/6/1 1/15/1 33/4/1
f 1/15/1 7/14/1 38/39/1
f 1/15/1 38/39/1 41/40/1
f 42/41/1 39/38/1 4/6/1
f 35/5/1 42/41/1 4/6/1
f 1/15/1 41/40/1 36/42/1
f 1/15/1 36/42/1 33/4/1
f 66/8/1 65/43/1 64/44/1
f 64/44/1 63/45/1 62/46/1
f 62/46/1 61/47/1 60/48/1
f 60/48/1 59/49/1 58/50/1
f 58/50/1 57/51/1 56/52/1
f 56/52/1 55/53/1 58/50/1
f 55/53/1 52/54/1 58/50/1
f 52/54/1 49/55/1 46/56/1
f 46/56/1 43/57/1 52/54/1
f 43/57/1 40/9/1 52/54/1
f 40/9/1 37/58/1 29/59/1
f 37/58/1 34/60/1 29/59/1
f 34/60/1 32/61/1 29/59/1
f 29/59/1 26/62/1 23/63/1
f 23/63/1 20/64/1 29/59/1
f 20/64/1 17/65/1 29/59/1
f 17/65/1 13/66/1 10/67/1
f 10/67/1 8/68/1 17/65/1
f 8/68/1 5/7/1 17/65/1
f 5/7/1 2/69/1 68/70/1
f 68/70/1 67/71/1 5/7/1
f 67/71/1 66/8/1 5/7/1
f 66/8/1 64/44/1 62/46/1
f 62/46/1 60/48/1 58/50/1
f 66/8/1 62/46/1 40/9/1
f 62/46/1 58/50/1 40/9/1
f 58/50/1 52/54/1 40/9/1
f 40/9/1 29/59/1 17/65/1
f 17/65/1 5/7/1 40/9/1
f 67/11/2 68/72/2 2/73/2
f 2/73/2 5/74/2 67/11/2
f 5/74/2 8/75/2 67/11/2
f 8/75/2 10/76/2 13/77/2
f 13/77/2 17/78/2 20/79/2
f 20/79/2 23/80/2 26/81/2
f 26/81/2 29/82/2 20/79/2
f 29/82/2 32/83/2 20/79/2
f 32/83/2 34/84/2 37/85/2
f 37/85/2 40/86/2 43/12/2
f 43/12/2 46/87/2 49/88/2
f 49/88/2 52/89/2 55/90/2
f 55/90/2 56/91/2 57/92/2
f 57/92/2 58/93/2 55/90/2
f 58/93/2 59/94/2 55/90/2
f 59/94/2 60/95/2 63/10/2
f 60/95/2 61/96/2 63/10/2
f 61/96/2 62/97/2 63/10/2
f 63/10/2 64/98/2 67/11/2
f 64/98/2 65/99/2 67/11/2
f 65/99/2 66/100/2 67/11/2
f 8/75/2 13/77/2 20/79/2
f 32/83/2 37/85/2 20/79/2
f 37/85/2 43/12/2 20/79/2
f 43/12/2 49/88/2 55/90/2
f 67/11/2 8/75/2 43/12/2
f 8/75/2 20/79/2 43/12/2
f 43/12/2 55/90/2 59/94/2
f 59/94/2 63/10/2 43/12/2
